<svg xmlns:xlink="http://www.w3.org/1999/xlink" xmlns="http://www.w3.org/2000/svg" xml:space="preserve" style="max-height: 500px" viewBox="36.47 218.23999999999998 145.6 144" y="0px" x="0px" version="1.1" width="292" height="288">
<g id="background">
	<rect height="400" width="600" style="fill:#FFFFFF;"/>
</g>
<g id="objects">
	<g>
		<path d="M357.644,68.728c-8.039-10.993-19.138-19.637-31.725-24.724&#10;&#9;&#9;&#9;c-12.583-5.147-26.583-6.568-40.021-4.305c-13.467,2.236-26.326,8.407-36.663,17.637c-1.699,1.63-4.669,4.408-7.993,8.591&#10;&#9;&#9;&#9;c-3.301,4.18-7.059,9.713-10.048,16.626c-1.499,3.446-2.857,7.204-3.883,11.234c-1.017,4.03-1.738,8.313-2.066,12.75&#10;&#9;&#9;&#9;c-0.671,8.86,0.253,18.374,3.117,27.451c2.827,9.081,7.546,17.651,13.503,24.807c5.936,7.187,13.086,12.929,20.352,17.022&#10;&#9;&#9;&#9;c3.632,2.055,7.29,3.714,10.837,5.038c3.564,1.284,7.01,2.226,10.234,2.926c6.471,1.325,12.02,1.581,16.067,1.547&#10;&#9;&#9;&#9;c0.985-0.038,1.966-0.039,2.944-0.111c8.842-0.411,18.565-2.781,27.077-6.937c8.554-4.094,15.768-9.899,20.775-15.395&#10;&#9;&#9;&#9;c4.575-5.079,8.414-10.915,11.329-17.097c-0.818,1.363-1.686,2.626-2.502,3.819c-0.875,1.157-1.64,2.288-2.474,3.248&#10;&#9;&#9;&#9;c4.024-5.62,6.866-11.974,7.601-14.514c1.231-3.453,1.703-5.637,1.894-6.815c0.194-1.18,0.098-1.365-0.177-0.954&#10;&#9;&#9;&#9;c-0.279,0.41-0.719,1.423-1.263,2.632c-0.607,1.189-1.206,2.614-1.925,3.808c-0.884,1.774-0.956,1.363-1.134,1.219&#10;&#9;&#9;&#9;c-0.188-0.152-0.413-0.009-1.841,2.676c1.831-3.973,2.591-6.046,3.838-10.261c-0.044-0.143-0.287,0.6-0.62,1.746&#10;&#9;&#9;&#9;c-0.404,1.123-0.846,2.672-1.415,4.09c-0.279,0.711-0.551,1.404-0.793,2.021c-0.258,0.61-0.518,1.131-0.71,1.525&#10;&#9;&#9;&#9;c-0.392,0.785-0.58,1.031-0.389,0.285c1.872-3.768,3.229-8.306,4.226-12.538c-0.349,0.694-1.344,4.323-2.565,7.589&#10;&#9;&#9;&#9;c-1.254,3.256-2.702,6.127-2.741,5.737c0.217-0.542,0.671-1.488,1.23-2.62c0.499-1.156,1.136-2.49,1.638-3.826&#10;&#9;&#9;&#9;c1.057-2.656,1.737-5.251,1.603-5.713c-0.051-0.182-1.222,3.973-1.988,5.993c2.158-6.297,2.76-11.449,2.809-13.409&#10;&#9;&#9;&#9;c0.012-0.988-0.089-1.19-0.323-0.413c-0.223,0.778-0.617,2.533-1.388,5.406c0.471-2.009,0.938-4.46,1.278-6.965&#10;&#9;&#9;&#9;c0.176-1.251,0.253-2.522,0.372-3.746c0.055-1.229,0.075-2.417,0.089-3.512c-0.002,0.007-0.007,0.023-0.01,0.033&#10;&#9;&#9;&#9;c-0.054,1.092-0.072,2.583-0.211,4.043c-0.142,1.46-0.266,2.898-0.426,3.893c0.328-2.454,0.465-4.94,0.515-7.421&#10;&#9;&#9;&#9;c-0.079,0.393-0.167,0.833-0.26,1.294c-0.047,0.923-0.108,1.846-0.22,2.775c-0.108,0.929-0.146,1.874-0.296,2.825&#10;&#9;&#9;&#9;c0.127-0.808,0.163-1.627,0.235-2.443c0.06-0.817,0.151-1.634,0.155-2.458c-0.187,1.222-0.525,2.61-0.784,4.128&#10;&#9;&#9;&#9;c-0.95,5.75-2.891,10.93-3.92,13.831c-4.108,11.789-11.788,22.29-21.711,29.818c-9.901,7.568-22.011,12.096-34.378,12.883&#10;&#9;&#9;&#9;c-0.034,0.206,1.309,0.305-0.748,0.556c-0.811,0.079-1.608,0.083-2.387,0.111c-0.78,0.03-1.545,0.029-2.3-0.022&#10;&#9;&#9;&#9;c-0.753-0.041-1.497-0.082-2.236-0.123c-0.734-0.086-1.463-0.171-2.193-0.256c-0.73-0.071-1.454-0.183-2.18-0.313&#10;&#9;&#9;&#9;c-0.727-0.118-1.459-0.236-2.2-0.356c-1.471-0.306-2.992-0.541-4.575-0.895c-0.174,0.07-0.353,0.141-0.531,0.212&#10;&#9;&#9;&#9;c-4.879-1.281-9.75-3.31-14.396-5.906c-4.366-2.231-8.44-5.003-12.158-8.174c-3.72-3.169-7.101-6.736-9.991-10.665&#10;&#9;&#9;&#9;c0.05,0.277,0.033,0.441-0.568-0.328c-2.44-3.259-5.285-8.191-7.344-13.657c-0.338-0.795-0.677-1.589-0.949-2.393&#10;&#9;&#9;&#9;c-0.279-0.606-0.443-0.733-0.545-0.813c-0.84-2.515-1.367-4.817-1.806-6.954c-3.231-13.994-1.87-29.409,4.795-42.985&#10;&#9;&#9;&#9;c3.297-6.784,7.805-13.148,13.461-18.573c5.639-5.434,12.369-9.977,19.895-13.187c1.568-0.739,3.194-1.339,4.812-1.965&#10;&#9;&#9;&#9;c1.645-0.54,3.284-1.11,4.96-1.525c3.335-0.885,6.722-1.524,10.084-1.795c4.976-0.426,10.712-0.219,16.269,0.829&#10;&#9;&#9;&#9;c5.567,0.995,10.937,2.756,15.361,4.764c-0.229-0.408,0.982-0.174,2.851,0.467c1.856,0.665,4.365,1.749,6.69,2.993&#10;&#9;&#9;&#9;c4.673,2.437,8.689,5.349,7.157,3.333c2.635,2.115,5.711,5.02,8.05,7.554c2.321,2.55,3.969,4.654,4.272,4.754&#10;&#9;&#9;&#9;c0.445,0.158,0.995,0.526,1.787,1.194c0.391,0.337,0.848,0.746,1.352,1.265c0.487,0.529,1.036,1.156,1.654,1.901&#10;&#9;&#9;&#9;c2.385,3.004,5.898,8.012,8.934,16.896c1.163,3.479,2.044,8.067,2.447,12.091c0.129,1.004,0.198,1.975,0.246,2.887&#10;&#9;&#9;&#9;c0.049,0.911,0.13,1.758,0.146,2.522c0.032,1.528,0.072,2.71,0.137,3.354c0.078,0.958,0.161,0.878,0.245,0.278&#10;&#9;&#9;&#9;c0.083-0.601,0.131-1.817,0.189-3.004c0.096-2.388,0.011-4.797,0.346-2.76C370.645,93.057,365.725,79.688,357.644,68.728z" style="fill:#0A0A0A;"/>
		<g>
			<path d="M367.189,296.506c0.039,0.148,0.075,0.222,0.109,0.25c-0.018-0.105-0.038-0.228-0.06-0.367&#10;&#9;&#9;&#9;&#9;C367.222,296.432,367.206,296.481,367.189,296.506z" style="fill:#0A0A0A;"/>
			<path d="M368.087,296.888c0.087,0.734,0.143,1.083,0.156,0.567&#10;&#9;&#9;&#9;&#9;C368.197,297.54,368.145,297.309,368.087,296.888z" style="fill:#0A0A0A;"/>
			<path d="M368.022,296.354c0.022,0.201,0.044,0.38,0.065,0.535c-0.02-0.166-0.041-0.35-0.063-0.55&#10;&#9;&#9;&#9;&#9;C368.023,296.344,368.022,296.349,368.022,296.354z" style="fill:#0A0A0A;"/>
			<path d="M368.024,296.339c0.052-0.356,0.111-0.734,0.203-1.006c0.117-0.927,0.004-1.529-0.161-1.16&#10;&#9;&#9;&#9;&#9;c-0.089-0.071-0.164,0.076-0.232,0.324c-0.027-0.275-0.054-0.552-0.081-0.83c-0.267-1.966-0.519-3.836-0.537-3.371&#10;&#9;&#9;&#9;&#9;c-0.046,0.29-0.108,0.303-0.173,0.24c-0.024-0.121-0.059-0.183-0.116-0.15c-0.088-0.131-0.17-0.222-0.216,0.179l0.098,0.374&#10;&#9;&#9;&#9;&#9;c-0.099,1.937-0.626,1.153-1.172,0.381c-0.582-0.827-1.185-1.634-1.309,0.664c0.533-1.929,0.55,0.665,0.46,2.71&#10;&#9;&#9;&#9;&#9;c-0.189,0.186-0.5,1.074-0.755,2.512c-0.12,1.257,0.09,0.759,0.187,1.013c-0.202,0.685-0.465,2.001-0.706,1.787&#10;&#9;&#9;&#9;&#9;c0.176,1.022-0.465,1.514-0.556,2.689c-0.039,1.049,0.147-0.044,0.168,0.712c-0.367,1.519-0.883,3.646-1.315,4.813&#10;&#9;&#9;&#9;&#9;c-0.372,0.399-1.19,1.66-1.273,0.539c0.687-2.227,0.361,1.033,0.946-1.333c-0.418,0.43-0.309-0.099-0.132-0.799&#10;&#9;&#9;&#9;&#9;c0.143-0.709,0.342-1.596,0.181-1.857c-0.212,0.347-0.406,0.898-0.574,1.523c-0.18,0.622-0.373,1.309-0.512,1.946l0.144-0.23&#10;&#9;&#9;&#9;&#9;c-0.202,1.134-0.84,3.357-1.528,4.428c-0.095-0.344-0.409,0.115-0.187-0.695c-0.171,0.494-0.366,0.979-0.576,1.459&#10;&#9;&#9;&#9;&#9;c-0.014,0.208-0.029,0.422,0.18,0.017c-0.128,0.745-0.481,1.407-0.799,1.892c-0.119,0.042-0.745,2.041-1.441,3.982&#10;&#9;&#9;&#9;&#9;c-0.692,1.941-1.496,3.798-1.495,3.65c-0.276,0.482-0.509,0.75-0.724,1.018c0.475-0.905,1.126-2.245,1.68-3.564&#10;&#9;&#9;&#9;&#9;c0.245-0.588,0.486-1.167,0.706-1.693c0.206-0.531,0.367-1.019,0.505-1.403c0.27-0.772,0.396-1.155,0.258-0.808&#10;&#9;&#9;&#9;&#9;c-0.158,0.195-0.487,1.056-0.954,2.229c-0.509,1.153-1.086,2.656-1.807,4.085c-0.661,1.462-1.463,2.843-2.072,3.925&#10;&#9;&#9;&#9;&#9;c-0.647,1.058-1.171,1.772-1.35,1.861c-0.465,0.709-1.06,1.541-0.771,1.512c-0.969,1.065-0.061-0.586-0.849,0.092&#10;&#9;&#9;&#9;&#9;c0.013,0.039,0.136,0.001-0.07,0.251l-0.814,0.598c-0.538,0.984-1.492,1.968-2.389,3.01c-0.971,0.977-1.885,2.019-2.587,2.962&#10;&#9;&#9;&#9;&#9;c0.336-0.62,0.567-1.467,1.431-2.678l0.261-0.11c0.109-0.187,0.863-1.141,0.672-1.264c-1.028,0.953-1.835,1.822-2.713,3.025&#10;&#9;&#9;&#9;&#9;c-0.237,0.147-0.507,0.323-0.701,0.427c0.024,0.016,0.056,0.018,0.075,0.045c-0.44,0.235-0.417,0.184-0.349,0.003&#10;&#9;&#9;&#9;&#9;c0.006-0.027,0.014-0.059,0.039-0.105c-1.006,0.182-3.771,3.973-6.039,5.238c-0.558,0.505,0.007,0.126-0.685,0.764&#10;&#9;&#9;&#9;&#9;c-0.566,0.326-1.088,0.626-1.59,0.915c-0.512,0.268-1.004,0.525-1.498,0.784c-0.492,0.26-0.986,0.521-1.508,0.796&#10;&#9;&#9;&#9;&#9;c-0.528,0.261-1.084,0.536-1.69,0.835c-0.615,0.666-0.628,0.798,0.423,0.52c-0.607,0.322-1.218,0.635-1.848,0.91&#10;&#9;&#9;&#9;&#9;c1.31-1.481-3.701,1.124-2.203-0.453c-0.592,0.13-1.71,0.565-2.685,1.145c-0.032,0.21-0.069,0.574-1.401,1.086&#10;&#9;&#9;&#9;&#9;c-1.932,0.5-1.454,0.433-3.081,0.734c-0.441-0.1,0.094-0.379-0.033-0.535c-2.272,1.103-2.227,0.186-4.455,0.878&#10;&#9;&#9;&#9;&#9;c-1.397,0.445-4.221,1.088-4.225,1.473c-1.965,0.332-2.008,0.033-1.868-0.334c-0.526,0.089-1.062,0.113-1.592,0.173&#10;&#9;&#9;&#9;&#9;c5.132-0.668,10.444-1.969,15.493-3.858c-2.839,0.807-5.839,1.411-8.842,1.913c-3.011,0.49-6.049,0.763-8.993,1.018&#10;&#9;&#9;&#9;&#9;c-2.951,0.22-5.819,0.339-8.535,0.519c-2.713,0.138-5.279,0.357-7.647,0.697c-0.177-0.442-1.001-0.921-2.112-1.435&#10;&#9;&#9;&#9;&#9;c-1.102-0.564-2.515-1.07-3.867-1.666c-2.734-1.088-5.307-2.215-5.483-2.08c-0.56-0.146-1.128-0.284-1.689-0.447l-1.671-0.548&#10;&#9;&#9;&#9;&#9;c-1.131-0.346-2.211-0.832-3.324-1.276c-6.942-2.998-13.474-7.936-18.677-14.269c-5.23-6.317-9.074-14.029-11.146-22.248&#10;&#9;&#9;&#9;&#9;c-0.628-2.265-1.292-5.566-1.712-9.397c-0.41-3.831-0.475-8.214-0.035-12.546c0.426-4.332,1.36-8.598,2.558-12.253&#10;&#9;&#9;&#9;&#9;c1.186-3.663,2.626-6.701,3.726-8.794c0.694-1.188,1.309-2.403,2.068-3.562c-0.647,0.95-0.933,1.448-1.223,1.944&#10;&#9;&#9;&#9;&#9;c-0.283,0.499-0.609,0.978-1.154,1.992c2.11-5.394,4.72-10.103,7.901-14.188c-0.775,0.539-1.057,0.503-2.646,2.037&#10;&#9;&#9;&#9;&#9;c0.602-0.66,1.154-1.357,1.789-1.984c0.272-0.565,0.709-1.256,1.236-2.011c0.56-0.725,1.215-1.507,1.883-2.29&#10;&#9;&#9;&#9;&#9;c0.709-0.745,1.422-1.495,2.073-2.179c0.682-0.653,1.295-1.25,1.755-1.741c-0.102,0.325,0.244,0.14,0.816-0.237&#10;&#9;&#9;&#9;&#9;c0.58-0.369,1.371-0.953,2.111-1.502l-0.713,0.27c2.823-2.084,5.992-4.17,9.253-5.917c3.259-1.743,6.583-3.193,9.59-4.103&#10;&#9;&#9;&#9;&#9;c0.825-0.297,1.506-0.31,1.915-0.316c0.947-0.322,1.898-0.639,2.869-0.888c0.965-0.271,1.931-0.55,2.916-0.749&#10;&#9;&#9;&#9;&#9;c-0.184,0.269,1.058,0.149,1.997,0.065c0.947-0.038,1.586-0.06,0.196,0.262c4.356-1.202,8.948-1.035,13.255-1.322&#10;&#9;&#9;&#9;&#9;c7.683,0.428,15.536,2.286,22.881,5.581c7.351,3.276,14.18,7.968,19.945,13.681l-0.148-0.404c2.038,1.987,4,3.861,5.831,6.072&#10;&#9;&#9;&#9;&#9;c1.859,2.183,3.603,4.7,5.069,7.894c1.456,2.07,2.85,4.8,4.051,7.225c1.171,2.439,2.083,4.598,2.83,5.466&#10;&#9;&#9;&#9;&#9;c0.387,1.438,0.715,2.661,1.015,3.776c0.279,1.123,0.53,2.137,0.781,3.148c0.211,1.019,0.443,2.037,0.651,3.169&#10;&#9;&#9;&#9;&#9;c0.156,1.136,0.374,2.382,0.484,3.856c0.219-0.773,0.401,0.657,0.564,1.928c0.174,1.289,0.262,2.302,0.456,0.904&#10;&#9;&#9;&#9;&#9;c0.584-4-0.013-4.195,0.212-7.624l-0.147,0.118c-0.489-7.927-2.485-15.818-5.817-23.166c-3.338-7.351-8.09-14.106-13.897-19.884&#10;&#9;&#9;&#9;&#9;c-4.076-3.644-8.592-7.133-13.563-10.013c-4.945-2.907-10.296-5.275-15.778-6.763c-2.937-0.845-6.012-1.393-9.092-1.835&#10;&#9;&#9;&#9;&#9;c-1.549-0.155-3.092-0.373-4.642-0.423c-0.773-0.039-1.544-0.091-2.313-0.114c-0.769-0.002-1.536-0.003-2.299-0.004&#10;&#9;&#9;&#9;&#9;c-6.106,0.007-11.956,0.971-16.944,2.336c-1.192,0.325-2.228,0.55-3.237,0.729c-1.013,0.161-1.994,0.291-3.029,0.541&#10;&#9;&#9;&#9;&#9;c-4.507,1.618-9.498,3.842-14.248,6.788c-4.738,2.953-9.254,6.56-12.94,10.48c0.14-0.146,0.283-0.28,0.382-0.362&#10;&#9;&#9;&#9;&#9;c-1.976,2.061-3.728,3.843-5.356,5.727c-0.808,0.946-1.631,1.879-2.381,2.918c-0.38,0.516-0.766,1.039-1.161,1.575&#10;&#9;&#9;&#9;&#9;c-0.358,0.561-0.724,1.134-1.101,1.725c0.13,0.05-0.33,0.785-0.496,1.176c-0.132,0.061-0.466,0.568-0.958,1.406&#10;&#9;&#9;&#9;&#9;c-0.239,0.423-0.524,0.925-0.846,1.494c-0.285,0.588-0.603,1.245-0.949,1.958c-1.347,2.864-2.834,6.749-3.883,10.775&#10;&#9;&#9;&#9;&#9;c-1.069,4.023-1.674,8.164-1.971,11.394c-0.071,0.808-0.136,1.559-0.196,2.239c-0.035,0.681-0.067,1.291-0.094,1.815&#10;&#9;&#9;&#9;&#9;c-0.067,1.046-0.122,1.748-0.162,1.989c0.009,0.573,0.019,1.166,0.029,1.772c-0.284,5.798,0.026,11.771,1.048,17.472&#10;&#9;&#9;&#9;&#9;c0.989,5.704,2.819,11.086,5.189,15.591c0.316,0.458,0.641,0.93,0.968,1.404c0.347,0.46,0.696,0.922,1.038,1.375&#10;&#9;&#9;&#9;&#9;c0.346,0.446,0.685,0.885,1.01,1.304c0.348,0.402,0.685,0.78,1.004,1.122c0.722,1.655,1.364,1.637,2.545,3.414&#10;&#9;&#9;&#9;&#9;c1.087,2.567,2.356,4.37,3.133,5.193c0.767,0.839,1.008,0.742,0.257-0.468c3.053,3.275,6.255,6.433,9.403,8.868&#10;&#9;&#9;&#9;&#9;c1.488,1.091,3.047,2.059,4.628,3.024c1.382,0.757,2.01,1.396,2.534,2.071c3.599,1.857,2.385,1.569,6.143,3.582&#10;&#9;&#9;&#9;&#9;c0.187,0.207,0.91,0.547,1.902,0.947c0.988,0.411,2.29,0.772,3.572,1.175c1.3,0.355,2.617,0.662,3.668,0.926&#10;&#9;&#9;&#9;&#9;c1.066,0.219,1.868,0.397,2.147,0.512l-0.682-0.125c0.585,0.176,1.143,0.357,1.68,0.541c0.542,0.167,1.066,0.329,1.578,0.487&#10;&#9;&#9;&#9;&#9;c1.02,0.337,1.989,0.677,2.974,0.951c1.956,0.609,3.946,1.105,6.356,1.354c3.344,0.413,6.797,0.453,10.264,0.321&#10;&#9;&#9;&#9;&#9;c3.468-0.179,6.941-0.662,10.339-1.347c3.392-0.728,6.689-1.713,9.842-2.845c3.133-1.186,6.116-2.518,8.892-3.957&#10;&#9;&#9;&#9;&#9;c-0.106-0.468-2.407,1.35-2.808,0.86c6.579-3.142,13.118-6.895,18.528-12.072c1.082-0.815,2.354-1.884,2.9-2.221&#10;&#9;&#9;&#9;&#9;c1.769-1.637,0.783-1.202,1.99-2.474l0.476,0.093c0.728-1.071,1.357-1.768,2.05-2.401c0.692-0.633,1.353-1.277,1.984-2.326&#10;&#9;&#9;&#9;&#9;c-0.068-0.207,0.443-0.932,0.931-1.644c0.397,0.21,1.413-2.259,1.69-1.937l-0.015-0.039c0.295-0.434,0.452-0.773,0.837-1.289&#10;&#9;&#9;&#9;&#9;c0.094-0.234,0.384-0.952,0.771-1.914c0.382-0.962,0.789-2.197,1.22-3.407c0.395-1.229,0.742-2.469,1.031-3.448&#10;&#9;&#9;&#9;&#9;c0.253-0.994,0.417-1.742,0.466-1.988l0.237-0.402c0.503-1.273,0.341-1.948,0.019-1.22l0.562-1.578l-0.033,0.193l0.557-1.572&#10;&#9;&#9;&#9;&#9;c0.138-0.278,0.421-0.557,0.481-0.04c0.113-0.961,0.322-2.006,0.657-2.898c-0.962,2.476-2.308,5.474-3.782,7.806&#10;&#9;&#9;&#9;&#9;c0.134-0.548,0.44-1.266,0.762-1.994c0.298-0.736,0.594-1.488,0.767-2.069c0.185-0.319,0.402-0.73,0.628-1.203&#10;&#9;&#9;&#9;&#9;c0.2-0.485,0.423-1.025,0.656-1.59c0.476-1.134,0.895-2.402,1.246-3.521c0.077-0.511-0.287-0.947,0.126-2.045&#10;&#9;&#9;&#9;&#9;c0.438-0.494,0.219-1.292,0.633-2.201c-0.022,1.124-0.269,2.189-0.523,3.288c0.469-0.099,0.768-2.655,1.044-3.517&#10;&#9;&#9;&#9;&#9;c-0.054-0.432,0.353-2.586,0.396-3.963c0.224,0.417,0.298-0.178,0.399-0.863c-0.02-0.182-0.041-0.379-0.063-0.589&#10;&#9;&#9;&#9;&#9;C367.982,295.965,368.004,296.158,368.024,296.339z M366.285,292.79c0.013-0.516,0.132-0.377,0.276,0.078&#10;&#9;&#9;&#9;&#9;C366.45,292.981,366.345,292.963,366.285,292.79z M367.298,296.756c0.017,0.102,0.032,0.186,0.045,0.247&#10;&#9;&#9;&#9;&#9;c-0.043,0.186-0.081,0.373-0.138,0.558c-0.035-0.346-0.051-0.949-0.03-1.571c0.023,0.143,0.044,0.276,0.063,0.399&#10;&#9;&#9;&#9;&#9;c0.186-0.496,0.271-2.085,0.279-2.977c-0.164-0.015-0.193,0.312-0.269,0.281c-0.054-0.288-0.089-0.687-0.118-1.084&#10;&#9;&#9;&#9;&#9;c-0.004-0.13-0.011-0.251-0.017-0.377l0.038-0.24c-0.03-0.273-0.042-0.577-0.055-0.849c0.014-0.206,0.045-0.39,0.108-0.541&#10;&#9;&#9;&#9;&#9;c0.058,0.201,0.008,0.644-0.006,0.958c0.013-0.689,0.385,1.144,0.62,3C367.624,295.331,367.494,296.92,367.298,296.756z" style="fill:#0A0A0A;"/>
		</g>
		<path d="M178.973,106.999c-0.899-13.272-5.656-26.144-13.454-36.713&#10;&#9;&#9;&#9;c-7.757-10.599-18.454-18.942-30.587-23.86c-12.124-4.977-25.636-6.368-38.611-4.199c-12.998,2.142-25.417,8.088-35.4,17.003&#10;&#9;&#9;&#9;c-1.66,1.553-4.551,4.215-7.783,8.244c-3.21,4.026-6.866,9.364-9.777,16.043c-1.459,3.33-2.784,6.962-3.785,10.86&#10;&#9;&#9;&#9;c-0.993,3.898-1.699,8.043-2.025,12.34c-0.666,8.583,0.215,17.803,2.979,26.598c2.728,8.799,7.293,17.109,13.064,24.05&#10;&#9;&#9;&#9;c5.75,6.97,12.682,12.539,19.726,16.506c3.521,1.992,7.066,3.598,10.504,4.88c3.454,1.242,6.795,2.152,9.92,2.828&#10;&#9;&#9;&#9;c6.272,1.276,11.651,1.515,15.574,1.469c0.955-0.035,1.906-0.033,2.853-0.1c8.569-0.414,17.978-2.705,26.24-6.701&#10;&#9;&#9;&#9;c8.303-3.938,15.334-9.514,20.277-14.785c4.538-4.847,8.409-10.439,11.395-16.414c-0.76,1.354-1.57,2.613-2.331,3.806&#10;&#9;&#9;&#9;c-0.82,1.157-1.53,2.292-2.313,3.26c3.941-5.525,6.717-11.761,7.533-14.22c1.266-3.371,1.79-5.503,2.041-6.647&#10;&#9;&#9;&#9;c0.254-1.144,0.227-1.312,0.028-0.886c-0.204,0.424-0.563,1.448-1.022,2.672c-0.522,1.204-1.031,2.65-1.656,3.874&#10;&#9;&#9;&#9;c-0.801,1.797-0.774,1.432-0.85,1.328c-0.087-0.11-0.209,0.071-1.563,2.806c1.832-3.995,2.592-6.079,3.836-10.315&#10;&#9;&#9;&#9;c-0.005-0.132-0.234,0.619-0.565,1.772c-0.402,1.13-0.854,2.685-1.429,4.11c-0.281,0.715-0.555,1.411-0.799,2.031&#10;&#9;&#9;&#9;c-0.258,0.614-0.515,1.139-0.701,1.539c-0.379,0.796-0.536,1.059-0.282,0.336c1.827-3.818,3.287-8.352,4.285-12.621&#10;&#9;&#9;&#9;c-0.242,0.724-1.225,4.394-2.44,7.7c-1.246,3.295-2.691,6.205-2.631,5.859c0.232-0.543,0.68-1.506,1.225-2.66&#10;&#9;&#9;&#9;c0.485-1.178,1.1-2.539,1.585-3.897c1.024-2.701,1.69-5.323,1.69-5.757c0.003-0.171-1.175,4.04-1.947,6.088&#10;&#9;&#9;&#9;c2.226-6.362,2.924-11.57,3.089-13.548c0.07-0.996,0.032-1.196-0.138-0.394c-0.158,0.802-0.485,2.603-1.199,5.559&#10;&#9;&#9;&#9;c0.477-2.056,0.924-4.569,1.245-7.131c0.167-1.28,0.235-2.579,0.349-3.829c0.05-1.255,0.071-2.468,0.094-3.586&#10;&#9;&#9;&#9;c-0.001,0.007-0.004,0.023-0.005,0.034c-0.05,1.115-0.051,2.638-0.178,4.131c-0.128,1.493-0.241,2.965-0.402,3.982&#10;&#9;&#9;&#9;c0.33-2.51,0.466-5.052,0.511-7.587c-0.045,0.403-0.095,0.853-0.147,1.326c-0.03,0.945-0.078,1.891-0.18,2.844&#10;&#9;&#9;&#9;c-0.055,0.536-0.095,1.078-0.141,1.622c0.033-0.41,0.06-0.82,0.095-1.23c0.06-0.838,0.151-1.676,0.154-2.519&#10;&#9;&#9;&#9;c-0.099,1.256-0.354,2.688-0.538,4.258c-0.789,5.93-2.532,11.372-3.595,14.386c-4.194,12.246-12.113,23.184-22.396,31.042&#10;&#9;&#9;&#9;c-10.257,7.898-22.857,12.646-35.723,13.472c-0.041,0.105,1.342,0.1-0.793,0.31c-0.841,0.069-1.666,0.068-2.473,0.097&#10;&#9;&#9;&#9;c-0.808,0.031-1.6,0.035-2.381-0.009c-0.78-0.031-1.551-0.062-2.317-0.092c-0.762-0.073-1.519-0.145-2.277-0.218&#10;&#9;&#9;&#9;c-0.758-0.058-1.511-0.158-2.267-0.278c-0.757-0.11-1.519-0.222-2.29-0.334c-1.531-0.298-3.114-0.542-4.753-0.933&#10;&#9;&#9;&#9;c-0.167,0.016-0.34,0.033-0.511,0.05c-5.073-1.255-10.164-3.267-15.036-5.895c-4.535-2.333-8.761-5.229-12.611-8.538&#10;&#9;&#9;&#9;c-3.851-3.308-7.342-7.031-10.319-11.125c0.104,0.25,0.133,0.385-0.47-0.426c-2.488-3.4-5.484-8.474-7.637-14.134&#10;&#9;&#9;&#9;c-0.341-0.827-0.682-1.654-0.955-2.49c-0.254-0.64-0.365-0.79-0.434-0.885c-0.873-2.598-1.435-4.974-1.907-7.181&#10;&#9;&#9;&#9;c-3.176-14.51-1.556-30.362,5.451-44.205c3.467-6.916,8.163-13.368,14.004-18.838c5.825-5.478,12.738-10.023,20.429-13.199&#10;&#9;&#9;&#9;c1.61-0.715,3.274-1.289,4.929-1.888c1.681-0.513,3.354-1.056,5.06-1.445c3.396-0.832,6.831-1.422,10.233-1.661&#10;&#9;&#9;&#9;c5.033-0.399,10.827-0.201,16.451,0.837c5.633,0.985,11.079,2.737,15.562,4.76c-0.291-0.278,0.883,0.077,2.712,0.828&#10;&#9;&#9;&#9;c1.816,0.775,4.283,1.959,6.553,3.297c4.568,2.627,8.416,5.684,6.714,3.904c2.615,2.091,5.671,4.966,7.979,7.486&#10;&#9;&#9;&#9;c2.29,2.537,3.895,4.643,4.13,4.789c0.345,0.228,0.789,0.666,1.468,1.394c0.335,0.367,0.735,0.804,1.179,1.346&#10;&#9;&#9;&#9;c0.428,0.553,0.916,1.2,1.473,1.959c2.142,3.063,5.381,8.041,8.194,16.704c1.098,3.386,1.984,7.83,2.404,11.736&#10;&#9;&#9;&#9;c0.133,0.974,0.207,1.918,0.259,2.803c0.053,0.885,0.137,1.708,0.154,2.451c0.034,1.485,0.068,2.636,0.108,3.262&#10;&#9;&#9;&#9;c0.081,1.918,0.177-0.304,0.185-2.641C178.885,107.344,178.722,105.026,178.973,106.999z" style="fill:#0A0A0A;"/>
		<path d="M548.666,67.975c-8.167-11.186-19.466-19.962-32.282-25.109c-3.19-1.324-6.505-2.318-9.843-3.191&#10;&#9;&#9;&#9;c-3.356-0.808-6.759-1.42-10.192-1.778c-3.433-0.327-6.881-0.502-10.327-0.354c-3.446,0.089-6.893,0.464-10.306,1.045&#10;&#9;&#9;&#9;c-13.674,2.305-26.713,8.592-37.195,17.949c-1.682,1.7-4.648,4.558-7.97,8.824c-3.3,4.263-7.054,9.886-10.037,16.888&#10;&#9;&#9;&#9;c-1.495,3.491-2.846,7.295-3.862,11.369c-1.009,4.074-1.719,8.4-2.033,12.874c-0.642,8.929,0.319,18.509,3.227,27.654&#10;&#9;&#9;&#9;c2.871,9.146,7.639,17.767,13.643,24.961c5.982,7.225,13.177,12.997,20.49,17.119c3.656,2.07,7.337,3.742,10.909,5.077&#10;&#9;&#9;&#9;c3.587,1.298,7.057,2.253,10.303,2.963c6.514,1.35,12.098,1.628,16.172,1.622c0.992-0.042,1.978-0.049,2.963-0.127&#10;&#9;&#9;&#9;c8.904-0.382,18.724-2.781,27.268-7.03c8.587-4.185,15.764-10.135,20.618-15.789c4.385-5.273,7.932-11.284,10.528-17.544&#10;&#9;&#9;&#9;c-0.894,1.302-1.832,2.501-2.719,3.624c-0.942,1.089-1.776,2.146-2.671,3.033c3.964-5.492,6.781-11.725,7.302-14.288&#10;&#9;&#9;&#9;c1.087-3.424,1.42-5.591,1.472-6.775c0.054-1.185-0.183-1.4-0.599-1.043c-0.421,0.356-1.006,1.287-1.699,2.392&#10;&#9;&#9;&#9;c-0.753,1.087-1.507,2.385-2.382,3.446c-1.008,1.62-1.286,1.139-1.668,0.917c-0.39-0.232-0.82-0.179-2.321,2.245&#10;&#9;&#9;&#9;c1.722-3.694,2.438-5.623,3.619-9.547c-0.125-0.156-0.383,0.526-0.701,1.59c-0.385,1.042-0.781,2.487-1.302,3.811&#10;&#9;&#9;&#9;c-0.259,0.662-0.51,1.307-0.735,1.882c-0.243,0.567-0.493,1.048-0.688,1.407c-0.398,0.716-0.639,0.911-0.593,0.159&#10;&#9;&#9;&#9;c1.86-3.443,2.916-7.725,3.854-11.629c-0.555,0.589-1.516,3.919-2.681,6.911c-1.196,2.983-2.567,5.604-2.814,5.142&#10;&#9;&#9;&#9;c0.174-0.508,0.613-1.362,1.168-2.381c0.499-1.042,1.145-2.241,1.653-3.453c1.067-2.407,1.733-4.793,1.326-5.287&#10;&#9;&#9;&#9;c-0.162-0.194-1.25,3.6-1.959,5.444c1.888-5.792,2.252-10.525,2.053-12.333c-0.111-0.913-0.339-1.109-0.697-0.428&#10;&#9;&#9;&#9;c-0.346,0.681-0.859,2.235-1.708,4.766c0.865-3.567,1.939-8.754,1.745-12.709c-0.007,0.004-0.012,0.021-0.018,0.03&#10;&#9;&#9;&#9;c-0.059,1.966-0.435,5.322-0.724,7.097c0.304-2.192,0.437-4.415,0.493-6.636c-0.162,0.348-0.323,0.74-0.484,1.151&#10;&#9;&#9;&#9;c-0.078,0.822-0.166,1.642-0.292,2.466c-0.122,0.824-0.17,1.663-0.31,2.507c0.118-0.717,0.151-1.445,0.219-2.17&#10;&#9;&#9;&#9;c0.057-0.726,0.143-1.452,0.149-2.185c-0.36,1.08-0.855,2.294-1.258,3.613c-1.234,5.033-3.482,9.357-4.381,11.849&#10;&#9;&#9;&#9;c-3.687,10.135-10.412,19.095-18.994,25.488c-8.568,6.426-18.933,10.228-29.523,10.882c-0.016,0.407,1.164,0.72-0.609,1.045&#10;&#9;&#9;&#9;c-2.811,0.298-5.388,0.082-7.879-0.418c-0.627-0.094-1.247-0.225-1.869-0.369c-0.622-0.126-1.248-0.252-1.882-0.381&#10;&#9;&#9;&#9;c-1.257-0.304-2.561-0.508-3.932-0.761c-0.178,0.179-0.361,0.362-0.543,0.545c-4.185-1.259-8.303-3.207-12.2-5.585&#10;&#9;&#9;&#9;c-3.754-1.885-7.267-4.235-10.49-6.925c-3.224-2.689-6.174-5.718-8.713-9.067c-0.067,0.318-0.181,0.535-0.742-0.103&#10;&#9;&#9;&#9;c-2.196-2.769-4.555-7.115-6.293-11.849c-0.313-0.679-0.628-1.357-0.881-2.047c-0.317-0.498-0.583-0.568-0.747-0.612&#10;&#9;&#9;&#9;c-0.72-2.191-1.142-4.203-1.486-6.066c-3.159-12.085-2.425-25.674,3.125-37.891c2.744-6.107,6.593-11.914,11.526-16.929&#10;&#9;&#9;&#9;c4.917-5.022,10.865-9.297,17.603-12.394c1.389-0.746,2.837-1.367,4.284-2.013c1.472-0.565,2.945-1.16,4.459-1.607&#10;&#9;&#9;&#9;c3.012-0.946,6.099-1.651,9.18-1.973c4.564-0.459,9.844-0.245,14.933,0.763c5.102,0.959,10,2.637,14.04,4.494&#10;&#9;&#9;&#9;c-0.085-0.66,1.134-0.696,2.98-0.326c1.832,0.393,4.285,1.202,6.589,2.177c4.622,1.892,8.76,4.33,7.678,1.931&#10;&#9;&#9;&#9;c2.523,2.042,5.464,4.841,7.731,7.255c2.251,2.428,3.893,4.404,4.321,4.401c0.631,0,1.375,0.199,2.358,0.701&#10;&#9;&#9;&#9;c0.487,0.254,1.039,0.581,1.638,1.018c0.583,0.448,1.227,0.997,1.939,1.667c2.759,2.705,6.649,7.484,9.978,16.315&#10;&#9;&#9;&#9;c1.231,3.473,2.052,8.099,2.395,12.135c0.113,1.008,0.168,1.982,0.205,2.895c0.038,0.913,0.107,1.761,0.12,2.526&#10;&#9;&#9;&#9;c0.025,1.528,0.075,2.71,0.189,3.355c0.157,0.902,0.321,0.826,0.49,0.262c0.168-0.568,0.303-1.817,0.446-3.009&#10;&#9;&#9;&#9;c0.267-2.41,0.351-4.873,0.845-2.819C561.849,92.763,556.876,79.122,548.666,67.975z" style="fill:#0A0A0A;"/>
		<g>
			<path d="M177.925,297.427c-0.024,0.099-0.027-0.221-0.022-0.755&#10;&#9;&#9;&#9;&#9;C177.89,297.529,177.884,297.983,177.925,297.427z" style="fill:#0A0A0A;"/>
			<path d="M177.906,296.34c-0.002,0.123-0.003,0.226-0.004,0.332c0.002-0.111,0.003-0.226,0.005-0.349&#10;&#9;&#9;&#9;&#9;C177.907,296.328,177.907,296.334,177.906,296.34z" style="fill:#0A0A0A;"/>
			<path d="M98.687,223.725c-0.199,0.034-0.399,0.062-0.597,0.099&#10;&#9;&#9;&#9;&#9;C98.363,223.781,98.544,223.75,98.687,223.725z" style="fill:#0A0A0A;"/>
			<path d="M177.908,296.323c0.035-0.354,0.074-0.728,0.118-1.002c0.086-0.926,0.078-1.521,0.004-1.148&#10;&#9;&#9;&#9;&#9;c-0.027-0.07-0.061,0.089-0.097,0.352c0.004-0.28,0.008-0.563,0.01-0.847c-0.056-1.961-0.108-3.852-0.122-3.382&#10;&#9;&#9;&#9;&#9;c-0.02,0.293-0.041,0.307-0.062,0.243c-0.006-0.123-0.017-0.185-0.036-0.151c-0.027-0.133-0.053-0.226-0.075,0.182l0.026,0.379&#10;&#9;&#9;&#9;&#9;c-0.137,4.037-0.686-3.545-0.846,1.101c0.197-2.005,0.206,0.681,0.072,2.786c-0.076,0.2-0.22,1.13-0.393,2.632&#10;&#9;&#9;&#9;&#9;c-0.152,1.301-0.036,0.773-0.025,1.025c-0.129,0.717-0.336,2.091-0.401,1.897c-0.038,1.027-0.343,1.596-0.514,2.807&#10;&#9;&#9;&#9;&#9;c-0.142,1.071,0.058-0.063-0.027,0.7c-0.357,1.58-0.861,3.794-1.269,5.018c-0.216,0.458-0.771,1.871-0.593,0.775&#10;&#9;&#9;&#9;&#9;c0.684-2.346-0.053,0.955,0.616-1.502c-0.241,0.502-0.1-0.043,0.1-0.773c0.165-0.739,0.376-1.668,0.359-1.909&#10;&#9;&#9;&#9;&#9;c-0.133,0.385-0.291,0.976-0.452,1.639c-0.18,0.658-0.378,1.382-0.559,2.044l0.099-0.257c-0.266,1.18-1.015,3.484-1.533,4.686&#10;&#9;&#9;&#9;&#9;c0.036-0.314-0.194,0.208,0.075-0.636c-0.172,0.526-0.371,1.042-0.584,1.553c-0.058,0.204-0.117,0.413,0.073-0.027&#10;&#9;&#9;&#9;&#9;c-0.239,0.747-0.554,1.467-0.811,2.012c-0.055,0.074-0.867,2.128-1.749,4.096c-0.879,1.97-1.871,3.828-1.829,3.697&#10;&#9;&#9;&#9;&#9;c-0.292,0.504-0.492,0.813-0.686,1.113c0.059-0.106,0.113-0.2,0.176-0.317c0.492-0.922,1.201-2.116,1.756-3.339&#10;&#9;&#9;&#9;&#9;c0.29-0.604,0.576-1.197,0.836-1.737c0.247-0.545,0.445-1.047,0.615-1.442c0.332-0.793,0.494-1.187,0.337-0.824&#10;&#9;&#9;&#9;&#9;c-0.128,0.222-0.501,1.124-1.049,2.337c-0.59,1.192-1.281,2.735-2.115,4.195c-0.772,1.495-1.684,2.9-2.359,4.011&#10;&#9;&#9;&#9;&#9;c-0.715,1.086-1.266,1.831-1.397,1.967c-0.497,0.738-1.147,1.591-0.966,1.467c-0.957,1.161,0.169-0.437-0.544,0.363&#10;&#9;&#9;&#9;&#9;c-0.006,0.026,0.082-0.047-0.13,0.22l-0.705,0.751c-0.661,0.962-1.65,2.009-2.589,3.112c-0.989,1.052-1.976,2.103-2.831,3.013&#10;&#9;&#9;&#9;&#9;c0.469-0.532,0.922-1.217,1.95-2.397l0.216-0.172c0.15-0.165,0.99-1.141,0.904-1.168c-1.015,1.083-1.899,1.993-2.94,3.161&#10;&#9;&#9;&#9;&#9;c-0.222,0.185-0.479,0.398-0.656,0.545c0.011,0.003,0.034-0.008,0.037,0.004c-0.4,0.32-0.366,0.278-0.251,0.129&#10;&#9;&#9;&#9;&#9;c0.017-0.022,0.036-0.047,0.067-0.086c-0.766,0.537-4.216,4.019-6.473,5.544c-0.633,0.486-0.04,0.072-0.826,0.68&#10;&#9;&#9;&#9;&#9;c-0.576,0.384-1.108,0.738-1.618,1.079c-0.525,0.319-1.028,0.624-1.534,0.931c-0.508,0.305-1.019,0.612-1.557,0.935&#10;&#9;&#9;&#9;&#9;c-0.551,0.303-1.13,0.621-1.763,0.968c-0.756,0.539-0.803,0.607,0.212,0.132c-0.634,0.361-1.273,0.711-1.933,1.023&#10;&#9;&#9;&#9;&#9;c1.652-1.116-3.73,1.653-1.891,0.441c-0.585,0.25-1.786,0.747-2.875,1.293c-0.089,0.102-0.214,0.295-1.646,0.847&#10;&#9;&#9;&#9;&#9;c-2.015,0.704-1.523,0.571-3.221,1.059c-0.42,0.059,0.182-0.177,0.091-0.213c-2.536,0.98-2.302,0.572-4.75,1.294&#10;&#9;&#9;&#9;&#9;c-1.539,0.435-4.626,1.115-4.685,1.227c-2.129,0.374-2.143,0.274-1.951,0.126c-0.574,0.108-1.158,0.147-1.736,0.225&#10;&#9;&#9;&#9;&#9;c5.62-0.709,11.416-2.243,16.872-4.421c-2.994,1.126-6.206,2.041-9.47,2.794c-3.271,0.74-6.617,1.195-9.879,1.519&#10;&#9;&#9;&#9;&#9;c-3.268,0.288-6.459,0.358-9.449,0.337c-2.987-0.064-5.777-0.196-8.255-0.382c-0.241-0.184-1.186-0.45-2.454-0.8&#10;&#9;&#9;&#9;&#9;c-1.256-0.403-2.859-0.793-4.395-1.327c-3.102-0.957-6.004-2.151-6.141-2.142l-1.813-0.647l-1.79-0.74&#10;&#9;&#9;&#9;&#9;c-1.211-0.47-2.367-1.077-3.557-1.635c-7.419-3.722-14.415-9.186-20.135-16.074c-5.74-6.867-10.14-15.178-12.651-24.164&#10;&#9;&#9;&#9;&#9;c-0.745-2.477-1.541-6.101-2.066-10.32c-0.516-4.22-0.655-9.053-0.239-13.851c0.4-4.799,1.363-9.544,2.618-13.627&#10;&#9;&#9;&#9;&#9;c1.241-4.092,2.764-7.508,3.913-9.88c0.729-1.345,1.384-2.72,2.198-4.033c-0.672,1.089-0.967,1.657-1.266,2.223&#10;&#9;&#9;&#9;&#9;c-0.291,0.569-0.629,1.117-1.186,2.269c2.649-5.866,5.8-10.875,9.451-15.227c-0.717,0.705-0.899,0.777-2.444,2.595&#10;&#9;&#9;&#9;&#9;c0.624-0.743,1.199-1.525,1.862-2.234c0.392-0.536,0.937-1.228,1.563-1.999c0.671-0.737,1.414-1.552,2.161-2.372&#10;&#9;&#9;&#9;&#9;c0.794-0.78,1.591-1.565,2.32-2.281c0.757-0.684,1.441-1.303,1.979-1.789c-0.194,0.251,0.13-0.006,0.719-0.455&#10;&#9;&#9;&#9;&#9;c0.592-0.451,1.438-1.097,2.233-1.703l-0.669,0.429c3.024-2.3,6.477-4.542,10.024-6.402c3.546-1.857,7.159-3.383,10.408-4.383&#10;&#9;&#9;&#9;&#9;c0.892-0.32,1.602-0.428,2.021-0.521c1.038-0.317,2.077-0.628,3.137-0.866c1.054-0.261,2.106-0.53,3.177-0.713&#10;&#9;&#9;&#9;&#9;c-0.232,0.121,1.102-0.086,2.113-0.236c0.837-0.084,1.432-0.142,0.779-0.027c4.606-0.796,9.356-0.861,13.809-0.753&#10;&#9;&#9;&#9;&#9;c8.299,0.487,16.776,2.579,24.623,6.258c7.855,3.657,15.064,8.878,21.001,15.164l-0.25-0.345&#10;&#9;&#9;&#9;&#9;c2.088,2.192,3.999,4.324,5.797,6.756c1.831,2.405,3.567,5.103,5.209,8.419c1.336,2.284,2.643,5.217,3.712,7.82&#10;&#9;&#9;&#9;&#9;c1.037,2.617,1.765,4.926,2.21,5.907c0.36,1.495,0.696,2.76,0.942,3.924c0.224,1.169,0.465,2.217,0.645,3.272&#10;&#9;&#9;&#9;&#9;c0.159,1.058,0.336,2.112,0.493,3.28c0.102,1.173,0.273,2.454,0.343,3.967c0.06-0.785,0.146,0.685,0.222,1.981&#10;&#9;&#9;&#9;&#9;c0.089,1.302,0.096,2.394,0.168,0.922c0.136-4.045-0.082-4.259-0.219-7.693l-0.04,0.107c-0.737-7.983-2.931-15.846-6.4-23.143&#10;&#9;&#9;&#9;&#9;c-3.476-7.298-8.31-13.977-14.153-19.688c-7.886-7.514-18.27-13.818-29.222-16.856c-2.925-0.873-5.991-1.452-9.066-1.935&#10;&#9;&#9;&#9;&#9;c-1.548-0.172-3.089-0.415-4.64-0.486c-0.774-0.05-1.546-0.1-2.316-0.15c-0.771-0.014-1.54-0.027-2.305-0.04&#10;&#9;&#9;&#9;&#9;c-6.125-0.094-12.014,0.756-17.07,2c-1.212,0.282-2.246,0.552-3.241,0.804c-1,0.233-1.954,0.464-2.968,0.786&#10;&#9;&#9;&#9;&#9;c-4.542,1.554-9.56,3.779-14.336,6.726c-4.629,2.872-9.044,6.359-12.749,10.114c0.014-0.013,0.033-0.032,0.046-0.043&#10;&#9;&#9;&#9;&#9;c-4.016,4.102-6.844,7.399-9.873,12.138c0.053,0.001-0.414,0.736-0.622,1.104c-0.088,0.089-0.399,0.612-0.889,1.455&#10;&#9;&#9;&#9;&#9;c-0.242,0.423-0.53,0.926-0.856,1.496c-0.295,0.586-0.624,1.241-0.981,1.951c-1.405,2.848-3.008,6.707-4.184,10.731&#10;&#9;&#9;&#9;&#9;c-1.195,4.019-1.935,8.184-2.318,11.447c-0.089,0.817-0.191,1.575-0.251,2.264c-0.047,0.69-0.089,1.308-0.125,1.839&#10;&#9;&#9;&#9;&#9;c-0.08,1.061-0.13,1.774-0.139,2.02c-0.007,0.581-0.014,1.183-0.021,1.797c-0.192,5.895,0.385,11.92,1.629,17.602&#10;&#9;&#9;&#9;&#9;c1.213,5.692,3.219,10.995,5.556,15.521c0.274,0.482,0.557,0.977,0.84,1.476c0.307,0.485,0.615,0.973,0.917,1.452&#10;&#9;&#9;&#9;&#9;c0.304,0.476,0.601,0.942,0.887,1.39c0.308,0.428,0.602,0.837,0.875,1.217c0.882,1.569,1.233,1.749,2.471,3.521&#10;&#9;&#9;&#9;&#9;c1.448,2.341,2.809,4.061,3.575,4.903c0.754,0.855,0.876,0.871,0.004-0.25c2.996,3.385,6.288,6.524,9.446,9.004&#10;&#9;&#9;&#9;&#9;c1.464,1.152,3.001,2.183,4.561,3.224c1.361,0.827,2.068,1.368,2.702,1.875c3.571,1.98,2.456,1.507,6.274,3.454&#10;&#9;&#9;&#9;&#9;c0.22,0.14,0.95,0.475,1.936,0.904c0.981,0.441,2.267,0.863,3.534,1.339c1.286,0.426,2.59,0.811,3.635,1.132&#10;&#9;&#9;&#9;&#9;c1.061,0.273,1.866,0.485,2.153,0.579l-0.678-0.17c4.751,1.334,7.958,2.219,12.792,2.711c3.356,0.361,6.815,0.371,10.285,0.229&#10;&#9;&#9;&#9;&#9;c3.472-0.191,6.945-0.671,10.347-1.348c3.395-0.721,6.697-1.697,9.853-2.826c3.136-1.185,6.121-2.523,8.886-3.985&#10;&#9;&#9;&#9;&#9;c0.038-0.194-2.44,1.289-2.66,1.17c6.604-3.218,12.933-7.298,18.288-12.497c1.024-0.873,2.178-2.048,2.649-2.449&#10;&#9;&#9;&#9;&#9;c1.674-1.703,0.887-1.097,2.06-2.389l0.261-0.087c0.811-0.988,1.375-1.732,1.99-2.414c0.615-0.682,1.183-1.381,1.853-2.385&#10;&#9;&#9;&#9;&#9;c0.023-0.14,0.543-0.85,1.019-1.56c0.148,0.046,1.415-2.225,1.463-2.048l0.004-0.027c0.288-0.43,0.458-0.756,0.795-1.291&#10;&#9;&#9;&#9;&#9;c0.113-0.219,0.46-0.895,0.924-1.798c0.458-0.906,0.961-2.078,1.495-3.23c0.495-1.171,0.947-2.359,1.325-3.298&#10;&#9;&#9;&#9;&#9;c0.327-0.957,0.571-1.674,0.652-1.911l0.192-0.42c0.512-1.269,0.558-1.872,0.286-1.123l0.548-1.591l-0.053,0.187l0.544-1.583&#10;&#9;&#9;&#9;&#9;c0.114-0.287,0.264-0.607,0.199-0.129c0.211-0.929,0.475-1.962,0.76-2.869c-0.785,2.523-1.885,5.616-3.094,8.091&#10;&#9;&#9;&#9;&#9;c0.183-0.535,0.48-1.268,0.785-2.012c0.279-0.753,0.548-1.524,0.739-2.106c0.137-0.345,0.306-0.774,0.498-1.259&#10;&#9;&#9;&#9;&#9;c0.163-0.501,0.345-1.058,0.534-1.641c0.399-1.165,0.746-2.459,1.032-3.597c0.094-0.508,0.056-0.878,0.327-2.015&#10;&#9;&#9;&#9;&#9;c0.213-0.54,0.228-1.3,0.48-2.242c-0.144,1.109-0.336,2.186-0.58,3.292c0.205-0.155,0.587-2.697,0.79-3.571&#10;&#9;&#9;&#9;&#9;c0.03-0.42,0.349-2.587,0.468-3.958c0.055,0.402,0.11-0.201,0.179-0.891c0.004-0.273,0.009-0.589,0.014-0.922&#10;&#9;&#9;&#9;&#9;C177.916,295.737,177.912,296.044,177.908,296.323z M177.468,292.835c0.006-0.524,0.052-0.39,0.093,0.064&#10;&#9;&#9;&#9;&#9;C177.521,293.024,177.485,293.012,177.468,292.835z M177.641,296.791c0.001,0.097,0.002,0.177,0.003,0.236&#10;&#9;&#9;&#9;&#9;c-0.024,0.192-0.043,0.384-0.081,0.575c0.011-0.341,0.037-0.942,0.076-1.564c0,0.137,0.001,0.266,0.001,0.385&#10;&#9;&#9;&#9;&#9;c0.085-0.514,0.21-2.098,0.23-2.993c-0.055-0.011-0.07,0.327-0.095,0.291c-0.012-0.287-0.017-0.686-0.02-1.085&#10;&#9;&#9;&#9;&#9;c0.001-0.132,0.001-0.256,0.001-0.385l0.017-0.243c-0.005-0.275-0.004-0.581-0.004-0.857c0.008-0.208,0.022-0.394,0.045-0.547&#10;&#9;&#9;&#9;&#9;c0.014,0.179-0.003,0.544-0.014,0.846c0.023-0.236,0.129,1.444,0.128,3.123C177.822,295.354,177.699,296.941,177.641,296.791z" style="fill:#0A0A0A;"/>
			<path d="M177.616,296.547c0.006,0.146,0.014,0.218,0.024,0.244c-0.001-0.105-0.001-0.228-0.002-0.369&#10;&#9;&#9;&#9;&#9;C177.631,296.468,177.623,296.52,177.616,296.547z" style="fill:#0A0A0A;"/>
		</g>
		<g>
			<path d="M561.526,297.781c-0.105,0.078-0.263-0.151-0.456-0.564&#10;&#9;&#9;&#9;&#9;C561.382,297.962,561.571,298.314,561.526,297.781z" style="fill:#0A0A0A;"/>
			<path d="M560.802,296.587c0.095,0.24,0.185,0.451,0.268,0.63c-0.081-0.192-0.169-0.408-0.264-0.645&#10;&#9;&#9;&#9;&#9;C560.804,296.577,560.803,296.582,560.802,296.587z" style="fill:#0A0A0A;"/>
			<path d="M558.609,296.626c0.122,0.16,0.226,0.241,0.32,0.276c-0.06-0.111-0.129-0.241-0.205-0.387&#10;&#9;&#9;&#9;&#9;C558.688,296.555,558.653,296.603,558.609,296.626z" style="fill:#0A0A0A;"/>
			<path d="M560.806,296.572c0.095-0.367,0.207-0.756,0.418-1.032c0.198-0.962-0.176-1.602-0.57-1.23&#10;&#9;&#9;&#9;&#9;c-0.243-0.08-0.424,0.063-0.572,0.31c-0.101-0.285-0.203-0.574-0.305-0.86c-0.793-2.047-1.543-3.934-1.572-3.463&#10;&#9;&#9;&#9;&#9;c-0.11,0.291-0.275,0.305-0.452,0.243c-0.069-0.123-0.167-0.186-0.317-0.151c-0.239-0.131-0.46-0.22-0.567,0.179l0.277,0.378&#10;&#9;&#9;&#9;&#9;c-0.183,1.944-1.621,1.117-3.107,0.352c-1.587-0.826-3.231-1.567-3.461,0.593c1.373-1.813,1.411,0.65,1.425,2.62&#10;&#9;&#9;&#9;&#9;c-0.474,0.161-1.2,0.977-1.667,2.309c-0.045,1.194,0.402,0.754,0.713,1.02c-0.386,0.63-0.797,1.853-1.478,1.583&#10;&#9;&#9;&#9;&#9;c0.705,1.048-0.782,1.368-0.681,2.497c0.212,1.033,0.372,0.003,0.649,0.766c-0.403,1.425-0.966,3.413-1.474,4.483&#10;&#9;&#9;&#9;&#9;c-0.766,0.267-2.258,1.204-2.981-0.019c0.718-2.015,1.388,1.259,1.789-0.967c-0.866,0.267-0.83-0.24-0.705-0.891&#10;&#9;&#9;&#9;&#9;c0.094-0.66,0.27-1.477-0.246-1.799c-0.413,0.266-0.699,0.739-0.893,1.294c-0.204,0.553-0.349,1.181-0.415,1.776l0.258-0.172&#10;&#9;&#9;&#9;&#9;c-0.055,1.061-0.443,3.166-1.571,3.955c-0.417-0.43-0.949-0.109-0.833-0.863c-0.173,0.435-0.369,0.861-0.578,1.281&#10;&#9;&#9;&#9;&#9;c0.092,0.225,0.186,0.46,0.449,0.125c0.141,0.768-0.321,1.312-0.799,1.665c-0.28-0.033-0.474,1.902-0.739,3.845&#10;&#9;&#9;&#9;&#9;c-0.26,1.939-0.633,3.86-0.733,3.666c-0.246,0.44-0.562,0.622-0.834,0.817c0.349-0.878,0.783-2.186,1.112-3.464&#10;&#9;&#9;&#9;&#9;c0.308-1.143,0.557-2.25,0.668-3.005c0.128-0.747,0.17-1.12,0.074-0.796c-0.236,0.133-0.469,0.929-0.758,2.047&#10;&#9;&#9;&#9;&#9;c-0.327,1.098-0.648,2.558-1.117,3.962c-0.414,1.434-0.974,2.804-1.444,3.856c-0.504,1.029-0.978,1.692-1.285,1.67&#10;&#9;&#9;&#9;&#9;c-0.402,0.665-0.886,1.474-0.322,1.676c-1.035,0.867-0.626-0.971-1.625-0.569c0.058,0.072,0.273,0.116,0.075,0.335l-1.111,0.244&#10;&#9;&#9;&#9;&#9;c-0.256,1.073-1.158,1.938-1.983,2.867c-0.895,0.87-1.714,1.811-2.082,2.945c0.022-0.857-0.279-2.13,0.213-3.46l0.378,0.039&#10;&#9;&#9;&#9;&#9;c0.012-0.246,0.584-1.183,0.128-1.544c-1.095,0.67-1.744,1.469-2.254,2.8c-0.282,0.057-0.592,0.138-0.837,0.152&#10;&#9;&#9;&#9;&#9;c0.056,0.051,0.114,0.082,0.17,0.147c-0.553,0.036-0.558-0.039-0.603-0.305c-0.014-0.043-0.029-0.094-0.026-0.154&#10;&#9;&#9;&#9;&#9;c-0.86-0.344-1.497,0.674-2.31,1.828c-0.768,1.195-1.753,2.502-2.884,2.851c-0.395,0.57,0.121,0.262-0.362,0.997&#10;&#9;&#9;&#9;&#9;c-1.124,0.405-2.076,0.71-3.041,0.998c-0.945,0.32-1.9,0.621-3.012,1.025c-0.292,1.001-0.222,1.293,0.953,1.486&#10;&#9;&#9;&#9;&#9;c-0.561,0.239-1.125,0.469-1.705,0.664c0.519-2.428-3.762-0.131-3.046-2.656c-0.63-0.159-1.585,0.141-2.315,0.824&#10;&#9;&#9;&#9;&#9;c0.106,0.481,0.285,1.276-0.853,1.711c-1.799,0.017-1.337,0.111-2.85-0.035c-0.509-0.492-0.117-0.887-0.337-1.344&#10;&#9;&#9;&#9;&#9;c-1.707,1.445-2.123-0.749-3.894-0.109c-1.1,0.483-3.381,1.06-3.249,2.125c-1.633,0.24-1.748-0.556-1.733-1.471&#10;&#9;&#9;&#9;&#9;c-0.428,0.046-0.866,0.032-1.296,0.052c4.122-0.593,8.438-1.371,12.671-2.616c-2.56,0.055-5.15-0.08-7.623-0.172&#10;&#9;&#9;&#9;&#9;c-2.483-0.104-4.874-0.267-7.146-0.172c-4.578,0.103-8.685,1.058-13.038,4.341c-0.024-1.088-0.583-2.106-1.353-3.038&#10;&#9;&#9;&#9;&#9;c-0.762-0.979-1.761-1.786-2.716-2.556c-1.931-1.447-3.791-2.449-4.07-2.002c-0.478,0.017-0.965,0.036-1.446,0.027l-1.437-0.097&#10;&#9;&#9;&#9;&#9;c-0.976-0.057-1.909-0.261-2.874-0.444c-6.023-1.333-11.653-5.16-15.777-10.364c-4.171-5.197-6.79-11.721-7.859-18.356&#10;&#9;&#9;&#9;&#9;c-0.363-1.826-0.73-4.457-0.906-7.474c-0.166-3.016-0.051-6.454,0.462-9.8c0.503-3.347,1.403-6.592,2.505-9.328&#10;&#9;&#9;&#9;&#9;c1.092-2.743,2.38-4.968,3.403-6.452c0.631-0.844,1.173-1.715,1.824-2.537c-0.609,0.643-0.884,0.987-1.161,1.33&#10;&#9;&#9;&#9;&#9;c-0.272,0.346-0.584,0.674-1.117,1.385c0.866-4.432,2.245-8.574,4.392-12.153c-0.946,0.152-1.48-0.149-3.235,0.745&#10;&#9;&#9;&#9;&#9;c0.568-0.481,1.087-0.994,1.677-1.442c-0.013-0.656,0.176-1.371,0.48-2.112c0.335-0.713,0.789-1.447,1.271-2.17&#10;&#9;&#9;&#9;&#9;c0.528-0.687,1.059-1.377,1.544-2.008c0.513-0.608,0.966-1.177,1.269-1.688c0.119,0.515,0.531,0.504,1.083,0.287&#10;&#9;&#9;&#9;&#9;c0.56-0.21,1.249-0.649,1.888-1.066l-0.845-0.11c2.43-1.63,5.019-3.41,7.696-4.942c2.671-1.526,5.409-2.844,7.933-3.564&#10;&#9;&#9;&#9;&#9;c0.688-0.252,1.326-0.031,1.724,0.174c0.761-0.346,1.528-0.69,2.317-0.974c0.784-0.305,1.571-0.62,2.38-0.865&#10;&#9;&#9;&#9;&#9;c-0.074,0.642,0.989,0.728,1.782,0.802c0.804,0.117,1.335,0.208,0.239,0.734c0.849-0.463,1.736-0.827,2.644-1.052&#10;&#9;&#9;&#9;&#9;c0.911-0.198,1.828-0.387,2.751-0.474c1.848-0.216,3.671-0.355,5.518-0.992c6.451,0.297,13.056,1.652,19.435,4.124&#10;&#9;&#9;&#9;&#9;c6.38,2.46,12.527,6.027,18.073,10.543l0.097-0.563c1.987,1.555,4.147,2.865,6.12,4.616c1.996,1.718,3.82,3.881,4.907,6.892&#10;&#9;&#9;&#9;&#9;c1.801,1.62,3.457,3.951,5.026,6.029c1.541,2.089,2.935,3.959,4.448,4.581c0.409,1.359,0.845,2.5,1.232,3.549&#10;&#9;&#9;&#9;&#9;c0.366,1.053,0.778,1.998,1.144,2.956c0.347,0.961,0.72,1.926,1.06,3.01c0.293,1.088,0.633,2.29,0.847,3.723&#10;&#9;&#9;&#9;&#9;c0.617-0.774,1.041,0.614,1.421,1.868c0.095,0.313,0.187,0.616,0.279,0.872c0.087,0.234,0.174,0.419,0.266,0.531&#10;&#9;&#9;&#9;&#9;c0.184,0.223,0.386,0.141,0.633-0.511c0.837-1.99,0.904-3.076,0.856-4.055c-0.061-0.988-0.11-1.881,0.418-3.671l-0.414,0.148&#10;&#9;&#9;&#9;&#9;c0.1-8.073-1.482-16.313-4.599-24.049c-3.12-7.741-7.84-14.927-13.767-21.074c-4.472-3.557-9.155-7.129-14.3-10.148&#10;&#9;&#9;&#9;&#9;c-5.114-3.04-10.653-5.581-16.378-7.034c-3.072-0.806-6.278-1.299-9.479-1.655c-3.212-0.28-6.431-0.413-9.57-0.232&#10;&#9;&#9;&#9;&#9;c-6.278,0.256-12.241,1.533-17.242,3.243c-1.186,0.443-2.263,0.564-3.343,0.571c-1.084-0.01-2.164-0.121-3.289-0.039&#10;&#9;&#9;&#9;&#9;c-4.582,1.831-9.686,4.134-14.543,7.181c-4.842,3.05-9.449,6.789-13.059,10.944c0.145-0.147,0.301-0.273,0.409-0.351&#10;&#9;&#9;&#9;&#9;c-1.97,2.146-3.877,3.847-5.679,5.672c-0.894,0.915-1.803,1.825-2.621,2.858c-0.418,0.51-0.831,1.037-1.238,1.588&#10;&#9;&#9;&#9;&#9;c-0.384,0.566-0.76,1.157-1.125,1.779c0.322,0.171-0.137,0.933-0.206,1.395c-0.246-0.005-0.645,0.481-1.162,1.335&#10;&#9;&#9;&#9;&#9;c-0.258,0.427-0.544,0.947-0.852,1.542c-0.284,0.609-0.587,1.297-0.904,2.046c-1.254,3.003-2.509,7.094-3.285,11.268&#10;&#9;&#9;&#9;&#9;c-0.798,4.176-1.097,8.409-1.192,11.672c-0.024,0.815-0.046,1.572-0.066,2.258c0.002,0.685-0.004,1.297-0.021,1.821&#10;&#9;&#9;&#9;&#9;c-0.037,1.047-0.106,1.746-0.224,1.984c0.064,0.575,0.121,1.169,0.151,1.773c-0.518,5.768-0.852,11.826-0.337,17.778&#10;&#9;&#9;&#9;&#9;c0.478,5.938,1.942,11.703,4.477,16.321c0.43,0.417,0.872,0.846,1.316,1.278c0.458,0.414,0.919,0.829,1.372,1.237&#10;&#9;&#9;&#9;&#9;c0.455,0.401,0.903,0.788,1.347,1.142c0.461,0.344,0.914,0.658,1.354,0.928c0.356,1.923,1.732,1.421,2.817,3.274&#10;&#9;&#9;&#9;&#9;c0.242,3.212,1.332,5.283,2.161,6.09c0.827,0.828,1.367,0.452,0.886-1.019c3.302,3.125,6.4,6.441,9.634,8.852&#10;&#9;&#9;&#9;&#9;c1.601,0.981,3.266,1.828,4.956,2.643c1.483,0.614,1.94,1.514,2.214,2.626c3.795,1.623,2.298,1.779,6.04,4.024&#10;&#9;&#9;&#9;&#9;c0.221,0.759,2.926,1.491,5.682,1.902c1.383,0.195,2.777,0.322,3.877,0.456c1.115,0.092,1.941,0.196,2.207,0.365l-0.717-0.02&#10;&#9;&#9;&#9;&#9;c0.585,0.193,1.138,0.41,1.668,0.645c0.536,0.213,1.049,0.441,1.549,0.683c1.001,0.512,1.959,1.001,2.913,1.489&#10;&#9;&#9;&#9;&#9;c1.924,0.991,3.928,1.87,6.41,2.157c3.434,0.555,6.996,0.671,10.577,0.558c3.584-0.156,7.178-0.663,10.689-1.393&#10;&#9;&#9;&#9;&#9;c3.506-0.769,6.909-1.813,10.165-2.994c3.239-1.23,6.324-2.595,9.224-4.029c-0.464-1.156-2.413,1.548-3.271,0.134&#10;&#9;&#9;&#9;&#9;c3.409-1.54,6.875-3.071,10.262-4.89c3.386-1.807,6.664-3.942,9.516-6.571c1.261-0.701,2.869-1.548,3.617-1.743&#10;&#9;&#9;&#9;&#9;c2.065-1.534,0.556-1.502,1.891-2.769l1.018,0.539c0.552-1.313,1.363-1.918,2.271-2.455c0.905-0.534,1.818-1.069,2.376-2.267&#10;&#9;&#9;&#9;&#9;c-0.293-0.377,0.216-1.167,0.751-1.909c1.02,0.62,1.459-2.423,2.306-1.733l-0.062-0.07c0.323-0.458,0.452-0.843,0.971-1.331&#10;&#9;&#9;&#9;&#9;c0.052-0.277,0.211-1.127,0.424-2.266c0.208-1.131,0.396-2.566,0.592-3.963c0.162-1.416,0.267-2.828,0.35-3.938&#10;&#9;&#9;&#9;&#9;c0.049-1.126,0.049-1.965,0.028-2.248l0.357-0.373c0.498-1.33-0.178-2.202-0.634-1.501l0.617-1.604l0.013,0.214l0.61-1.601&#10;&#9;&#9;&#9;&#9;c0.203-0.265,0.822-0.456,1.189,0.175c-0.122-1.072-0.041-2.185,0.43-3.073c-1.427,2.447-3.423,5.32-5.599,7.385&#10;&#9;&#9;&#9;&#9;c0.017-0.599,0.356-1.307,0.733-2.021c0.354-0.721,0.728-1.454,0.863-2.052c0.302-0.283,0.633-0.662,0.969-1.108&#10;&#9;&#9;&#9;&#9;c0.319-0.452,0.649-0.97,0.978-1.522c0.68-1.098,1.292-2.348,1.815-3.459c0.04-0.536-1.139-1.151-0.361-2.193&#10;&#9;&#9;&#9;&#9;c1.005-0.399,0.203-1.319,1.029-2.18c0.277,1.201-0.115,2.275-0.403,3.394c1.13,0.036,1.237-2.648,1.703-3.509&#10;&#9;&#9;&#9;&#9;c-0.263-0.477,0.377-2.674,0.234-4.117c0.645,0.473,0.768-0.138,0.951-0.843c-0.065-0.164-0.133-0.342-0.202-0.528&#10;&#9;&#9;&#9;&#9;C560.671,296.237,560.74,296.409,560.806,296.572z M555.826,292.771c0.029-0.511,0.334-0.369,0.735,0.096&#10;&#9;&#9;&#9;&#9;C556.271,292.971,555.992,292.946,555.826,292.771z M558.93,296.902c0.059,0.109,0.11,0.198,0.151,0.264&#10;&#9;&#9;&#9;&#9;c-0.093,0.185-0.18,0.371-0.286,0.554c-0.149-0.367-0.268-0.992-0.29-1.629c0.078,0.151,0.152,0.293,0.22,0.424&#10;&#9;&#9;&#9;&#9;c0.44-0.483,0.428-2.122,0.409-3.035c-0.436-0.027-0.502,0.301-0.703,0.266c-0.159-0.297-0.266-0.704-0.362-1.108&#10;&#9;&#9;&#9;&#9;c-0.016-0.132-0.037-0.262-0.059-0.39l0.089-0.236c-0.093-0.279-0.138-0.589-0.184-0.866c0.029-0.207,0.105-0.391,0.265-0.541&#10;&#9;&#9;&#9;&#9;c0.163,0.205,0.048,0.653,0.024,0.971c0.032-0.697,1.016,1.16,1.835,3.111C559.621,295.468,559.472,297.1,558.93,296.902z" style="fill:#0A0A0A;"/>
		</g>
	</g>
</g>
</svg>