<svg version="1.1" viewBox="218.54987383233535 86.17588 184.00365269461076 183.96576000000002" id="svg2" xmlns="http://www.w3.org/2000/svg" style="max-height: 500px" width="184.00365269461076" height="183.96576000000002">
  
  <g transform="translate(-61.656 -58.378)" id="layer1">
    <g style="fill:#000000" id="text2985">
      <path d="m289.02 62.314h-10.464v30.048h-3.984v-30.048h-10.464v-3.552h24.912v3.552" id="path3936"/>
      <path d="m294.38 68.362h3.84v24h-3.84v-24m-0.816-7.296c-0.00001-0.73597 0.23999-1.36 0.72-1.872 0.51199-0.54397 1.152-0.81597 1.92-0.816 0.76799 0.000034 1.424 0.27203 1.968 0.816 0.54399 0.51203 0.81599 1.136 0.816 1.872-0.00001 0.73603-0.27201 1.344-0.816 1.824-0.54401 0.48003-1.2 0.72003-1.968 0.72-0.76801 0.000029-1.408-0.23997-1.92-0.72-0.48001-0.47997-0.72001-1.088-0.72-1.824" id="path3938"/>
      <path d="m322.77 90.778c-0.96002 0.704-2.096 1.232-3.408 1.584-1.312 0.384-2.688 0.576-4.128 0.576-1.856-0.000001-3.424-0.288-4.704-0.864-1.28-0.608-2.336-1.456-3.168-2.544-0.80001-1.12-1.392-2.448-1.776-3.984-0.352-1.568-0.528-3.296-0.528-5.184 0-4.064 0.89599-7.168 2.688-9.312 1.792-2.176 4.368-3.264 7.728-3.264 1.536 0.000025 2.832 0.12802 3.888 0.384 1.088 0.22402 2.064 0.56002 2.928 1.008l-1.104 3.312c-0.73602-0.41598-1.552-0.73598-2.448-0.96-0.89602-0.25598-1.856-0.38398-2.88-0.384-4.544 0.000021-6.816 3.072-6.816 9.216-0.00001 1.216 0.11199 2.384 0.336 3.504 0.25599 1.088 0.65599 2.064 1.2 2.928 0.57599 0.832 1.312 1.504 2.208 2.016 0.92799 0.512 2.064 0.768 3.408 0.768 1.152 0.000003 2.176-0.176 3.072-0.528 0.92798-0.352 1.68-0.752 2.256-1.2l1.248 2.928" id="path3940"/>
      <path d="m360.36 62.314h-10.464v30.048h-3.984v-30.048h-10.464v-3.552h24.912v3.552" id="path3942"/>
      <path d="m359.46 70.138c1.216-0.73598 2.624-1.28 4.224-1.632 1.632-0.35198 3.328-0.52798 5.088-0.528 1.664 0.000024 2.992 0.22402 3.984 0.672 1.024 0.44802 1.792 1.04 2.304 1.776 0.54398 0.70402 0.89598 1.488 1.056 2.352 0.19198 0.86402 0.28798 1.728 0.288 2.592-0.00002 1.92-0.048 3.792-0.144 5.616s-0.14402 3.552-0.144 5.184c-0.00002 1.184 0.048 2.304 0.144 3.36s0.27198 2.032 0.528 2.928h-2.832l-1.008-3.36h-0.24c-0.28802 0.448-0.65602 0.896-1.104 1.344-0.41602 0.416-0.92802 0.8-1.536 1.152-0.60802 0.32-1.312 0.592-2.112 0.816-0.80001 0.224-1.712 0.336-2.736 0.336s-1.984-0.16-2.88-0.48c-0.86401-0.32-1.616-0.768-2.256-1.344-0.64001-0.608-1.152-1.328-1.536-2.16-0.352-0.832-0.528-1.776-0.528-2.832 0-1.408 0.288-2.576 0.864-3.504 0.57599-0.95999 1.376-1.712 2.4-2.256 1.056-0.57599 2.304-0.97599 3.744-1.2 1.472-0.25599 3.088-0.38399 4.848-0.384 0.44798 0.000014 0.87998 0.000014 1.296 0 0.44798 0.000014 0.89598 0.03201 1.344 0.096 0.096-0.95998 0.14398-1.824 0.144-2.592-0.00002-1.76-0.35202-2.992-1.056-3.696-0.70402-0.70398-1.984-1.056-3.84-1.056-0.54401 0.000021-1.136 0.04802-1.776 0.144-0.60801 0.06402-1.248 0.17602-1.92 0.336-0.64001 0.12802-1.264 0.30402-1.872 0.528-0.57601 0.19202-1.088 0.41602-1.536 0.672l-1.2-2.88m6.816 19.248c0.89599 0.000003 1.696-0.112 2.4-0.336 0.70398-0.256 1.312-0.56 1.824-0.912 0.51198-0.384 0.92798-0.8 1.248-1.248 0.35198-0.44799 0.60798-0.87999 0.768-1.296v-3.984c-0.44802-0.03199-0.91202-0.04799-1.392-0.048-0.44802-0.03199-0.89602-0.04799-1.344-0.048-0.99201 0.000011-1.968 0.06401-2.928 0.192-0.92801 0.09601-1.76 0.30401-2.496 0.624-0.70401 0.28801-1.28 0.70401-1.728 1.248-0.41601 0.51201-0.62401 1.168-0.624 1.968-0.00001 1.12 0.39999 2.048 1.2 2.784 0.79999 0.704 1.824 1.056 3.072 1.056" id="path3944"/>
      <path d="m400.02 90.778c-0.96002 0.704-2.096 1.232-3.408 1.584-1.312 0.384-2.688 0.576-4.128 0.576-1.856-0.000001-3.424-0.288-4.704-0.864-1.28-0.608-2.336-1.456-3.168-2.544-0.80001-1.12-1.392-2.448-1.776-3.984-0.352-1.568-0.528-3.296-0.528-5.184 0-4.064 0.89599-7.168 2.688-9.312 1.792-2.176 4.368-3.264 7.728-3.264 1.536 0.000025 2.832 0.12802 3.888 0.384 1.088 0.22402 2.064 0.56002 2.928 1.008l-1.104 3.312c-0.73602-0.41598-1.552-0.73598-2.448-0.96-0.89602-0.25598-1.856-0.38398-2.88-0.384-4.544 0.000021-6.816 3.072-6.816 9.216-0.00001 1.216 0.11199 2.384 0.336 3.504 0.25599 1.088 0.65599 2.064 1.2 2.928 0.57599 0.832 1.312 1.504 2.208 2.016 0.92799 0.512 2.064 0.768 3.408 0.768 1.152 0.000003 2.176-0.176 3.072-0.528 0.92798-0.352 1.68-0.752 2.256-1.2l1.248 2.928" id="path3946"/>
      <path d="m437.61 62.314h-10.464v30.048h-3.984v-30.048h-10.464v-3.552h24.912v3.552" id="path3948"/>
      <path d="m434.62 80.362c0-4.064 0.89599-7.168 2.688-9.312 1.824-2.176 4.432-3.264 7.824-3.264 1.792 0.000025 3.344 0.30402 4.656 0.912 1.344 0.57602 2.448 1.424 3.312 2.544 0.86398 1.088 1.504 2.416 1.92 3.984 0.41597 1.536 0.62397 3.248 0.624 5.136-0.00003 4.064-0.91202 7.184-2.736 9.36-1.792 2.144-4.384 3.216-7.776 3.216-1.792-0.000001-3.36-0.288-4.704-0.864-1.312-0.608-2.4-1.456-3.264-2.544-0.86401-1.12-1.504-2.448-1.92-3.984-0.416-1.568-0.624-3.296-0.624-5.184m3.984 0c-0.00001 1.216 0.11199 2.384 0.336 3.504 0.25599 1.12 0.63999 2.096 1.152 2.928 0.51199 0.832 1.184 1.504 2.016 2.016 0.83199 0.512 1.84 0.768 3.024 0.768 4.352 0.032 6.528-3.04 6.528-9.216-0.00002-1.248-0.12802-2.432-0.384-3.552-0.22402-1.12-0.59202-2.096-1.104-2.928-0.51202-0.83198-1.184-1.488-2.016-1.968-0.83202-0.51198-1.84-0.76798-3.024-0.768-4.352-0.03198-6.528 3.04-6.528 9.216" id="path3950"/>
      <path d="m479.17 90.442c-0.96002 0.768-2.176 1.376-3.648 1.824-1.44 0.448-2.976 0.672-4.608 0.672-1.824-0.000001-3.408-0.288-4.752-0.864-1.344-0.608-2.448-1.456-3.312-2.544-0.86401-1.12-1.504-2.448-1.92-3.984s-0.624-3.264-0.624-5.184c0-4.096 0.91199-7.216 2.736-9.36s4.432-3.216 7.824-3.216c1.088 0.000025 2.176 0.12802 3.264 0.384 1.088 0.22402 2.064 0.67202 2.928 1.344 0.86398 0.67202 1.568 1.632 2.112 2.88 0.54398 1.216 0.81598 2.832 0.816 4.848-0.00002 1.056-0.096 2.224-0.288 3.504h-15.408c-0.00001 1.408 0.14399 2.656 0.432 3.744 0.28799 1.088 0.73599 2.016 1.344 2.784 0.60799 0.736 1.392 1.312 2.352 1.728 0.99199 0.384 2.192 0.576 3.6 0.576 1.088 0.000003 2.176-0.192 3.264-0.576s1.904-0.832 2.448-1.344l1.44 2.784m-8.256-19.296c-1.888 0.000021-3.408 0.49602-4.56 1.488-1.12 0.99202-1.792 2.688-2.016 5.088h11.904c-0.00002-2.432-0.46402-4.128-1.392-5.088-0.92802-0.99198-2.24-1.488-3.936-1.488" id="path3952"/>
    </g>
    <g transform="translate(774.48 -169.5)" id="g3765">
      <path transform="translate(0 -.000043724)" d="m-651.43 315.22v180.78" style="stroke:#000000;stroke-width:2;fill:none" id="path2989"/>
      <path d="m-591.43 315.22v180.78" style="stroke:#000000;stroke-width:2;fill:none" id="path3759"/>
      <path d="m-531.04 375.61-180.78-0.00001" style="stroke:#000000;stroke-width:2;fill:none" id="path3761"/>
      <path style="stroke:#000000;stroke-width:2;fill:none" d="m-531.04 435.61-180.78-0.00002" id="path3763"/>
    </g>
    <g transform="translate(994.48 -169.5)" id="g3771">
      <path transform="translate(0 -.000043724)" d="m-651.43 315.22v180.78" style="stroke:#000000;stroke-width:2;fill:none" id="path3773"/>
      <path style="stroke:#000000;stroke-width:2;fill:none" d="m-591.43 315.22v180.78" id="path3775"/>
      <path style="stroke:#000000;stroke-width:2;fill:none" d="m-531.04 375.61-180.78-0.00001" id="path3777"/>
      <path d="m-531.04 435.61-180.78-0.00002" style="stroke:#000000;stroke-width:2;fill:none" id="path3779"/>
    </g>
    <g transform="translate(1212.5 -169.5)" id="g3781">
      <path transform="translate(0 -.000043724)" d="m-651.43 315.22v180.78" style="stroke:#000000;stroke-width:2;fill:none" id="path3783"/>
      <path d="m-591.43 315.22v180.78" style="stroke:#000000;stroke-width:2;fill:none" id="path3785"/>
      <path d="m-531.04 375.61-180.78-0.00001" style="stroke:#000000;stroke-width:2;fill:none" id="path3787"/>
      <path style="stroke:#000000;stroke-width:2;fill:none" d="m-531.04 435.61-180.78-0.00002" id="path3789"/>
    </g>
    <g transform="translate(774.48 50.497)" id="g3791">
      <path transform="translate(0 -.000043724)" d="m-651.43 315.22v180.78" style="stroke:#000000;stroke-width:2;fill:none" id="path3793"/>
      <path style="stroke:#000000;stroke-width:2;fill:none" d="m-591.43 315.22v180.78" id="path3795"/>
      <path style="stroke:#000000;stroke-width:2;fill:none" d="m-531.04 375.61-180.78-0.00001" id="path3797"/>
      <path d="m-531.04 435.61-180.78-0.00002" style="stroke:#000000;stroke-width:2;fill:none" id="path3799"/>
    </g>
    <g transform="translate(994.48 50.497)" id="g3801">
      <path transform="translate(0 -.000043724)" d="m-651.43 315.22v180.78" style="stroke:#000000;stroke-width:2;fill:none" id="path3803"/>
      <path d="m-591.43 315.22v180.78" style="stroke:#000000;stroke-width:2;fill:none" id="path3805"/>
      <path d="m-531.04 375.61-180.78-0.00001" style="stroke:#000000;stroke-width:2;fill:none" id="path3807"/>
      <path style="stroke:#000000;stroke-width:2;fill:none" d="m-531.04 435.61-180.78-0.00002" id="path3809"/>
    </g>
    <g transform="translate(1212.5 50.497)" id="g3811">
      <path transform="translate(0 -.000043724)" d="m-651.43 315.22v180.78" style="stroke:#000000;stroke-width:2;fill:none" id="path3813"/>
      <path style="stroke:#000000;stroke-width:2;fill:none" d="m-591.43 315.22v180.78" id="path3815"/>
      <path style="stroke:#000000;stroke-width:2;fill:none" d="m-531.04 375.61-180.78-0.00001" id="path3817"/>
      <path d="m-531.04 435.61-180.78-0.00002" style="stroke:#000000;stroke-width:2;fill:none" id="path3819"/>
    </g>
    <g transform="translate(774.48 270.5)" id="g3821">
      <path transform="translate(0 -.000043724)" d="m-651.43 315.22v180.78" style="stroke:#000000;stroke-width:2;fill:none" id="path3823"/>
      <path d="m-591.43 315.22v180.78" style="stroke:#000000;stroke-width:2;fill:none" id="path3825"/>
      <path d="m-531.04 375.61-180.78-0.00001" style="stroke:#000000;stroke-width:2;fill:none" id="path3827"/>
      <path style="stroke:#000000;stroke-width:2;fill:none" d="m-531.04 435.61-180.78-0.00002" id="path3829"/>
    </g>
    <g transform="translate(994.48 270.5)" id="g3831">
      <path transform="translate(0 -.000043724)" d="m-651.43 315.22v180.78" style="stroke:#000000;stroke-width:2;fill:none" id="path3833"/>
      <path style="stroke:#000000;stroke-width:2;fill:none" d="m-591.43 315.22v180.78" id="path3835"/>
      <path style="stroke:#000000;stroke-width:2;fill:none" d="m-531.04 375.61-180.78-0.00001" id="path3837"/>
      <path d="m-531.04 435.61-180.78-0.00002" style="stroke:#000000;stroke-width:2;fill:none" id="path3839"/>
    </g>
    <g transform="translate(1212.5 270.5)" id="g3841">
      <path transform="translate(0 -.000043724)" d="m-651.43 315.22v180.78" style="stroke:#000000;stroke-width:2;fill:none" id="path3843"/>
      <path d="m-591.43 315.22v180.78" style="stroke:#000000;stroke-width:2;fill:none" id="path3845"/>
      <path d="m-531.04 375.61-180.78-0.00001" style="stroke:#000000;stroke-width:2;fill:none" id="path3847"/>
      <path style="stroke:#000000;stroke-width:2;fill:none" d="m-531.04 435.61-180.78-0.00002" id="path3849"/>
    </g>
    <g transform="translate(774.48 490.5)" id="g3851">
      <path transform="translate(0 -.000043724)" d="m-651.43 315.22v180.78" style="stroke:#000000;stroke-width:2;fill:none" id="path3853"/>
      <path style="stroke:#000000;stroke-width:2;fill:none" d="m-591.43 315.22v180.78" id="path3855"/>
      <path style="stroke:#000000;stroke-width:2;fill:none" d="m-531.04 375.61-180.78-0.00001" id="path3857"/>
      <path d="m-531.04 435.61-180.78-0.00002" style="stroke:#000000;stroke-width:2;fill:none" id="path3859"/>
    </g>
    <g transform="translate(994.48 490.5)" id="g3861">
      <path transform="translate(0 -.000043724)" d="m-651.43 315.22v180.78" style="stroke:#000000;stroke-width:2;fill:none" id="path3863"/>
      <path d="m-591.43 315.22v180.78" style="stroke:#000000;stroke-width:2;fill:none" id="path3865"/>
      <path d="m-531.04 375.61-180.78-0.00001" style="stroke:#000000;stroke-width:2;fill:none" id="path3867"/>
      <path style="stroke:#000000;stroke-width:2;fill:none" d="m-531.04 435.61-180.78-0.00002" id="path3869"/>
    </g>
    <g transform="translate(1212.5 490.5)" id="g3871">
      <path transform="translate(0 -.000043724)" d="m-651.43 315.22v180.78" style="stroke:#000000;stroke-width:2;fill:none" id="path3873"/>
      <path style="stroke:#000000;stroke-width:2;fill:none" d="m-591.43 315.22v180.78" id="path3875"/>
      <path style="stroke:#000000;stroke-width:2;fill:none" d="m-531.04 375.61-180.78-0.00001" id="path3877"/>
      <path d="m-531.04 435.61-180.78-0.00002" style="stroke:#000000;stroke-width:2;fill:none" id="path3879"/>
    </g>
  </g>
  <metadata id="metadata76">
    
      
        image/svg+xml
        
        
        
          
            Openclipart
          
        
      
      
        
        
        
      
    
  </metadata>
</svg>